<svg xmlns="http://www.w3.org/2000/svg" viewBox="0 0 97.8 97.8" width="24px" height="24px">
<path d="M48.9 0C21.9 0 0 21.9 0 48.9S21.9 97.8 48.9 97.8 97.8 75.9 97.8 48.9 75.9 0 48.9 0zM54.5 65.1c-4.5 0-8.8-2.4-10.2-5.2 0 0-2.4 9.6-2.9 11.5 -1.8 6.6-7.1 13.2-7.6 13.7 -0.3 0.4-0.9 0.3-1-0.2 -0.1-0.8-1.5-9.1 0.1-15.9 0.8-3.4 5.4-22.8 5.4-22.8s-1.3-2.7-1.3-6.6c0-6.2 3.6-10.8 8.1-10.8 3.8 0 5.6 2.9 5.6 6.3 0 3.8-2.4 9.6-3.7 14.9 -1.1 4.4 2.2 8.1 6.6 8.1 7.9 0 13.3-10.2 13.3-22.3 0-9.2-6.2-16-17.4-16 -12.7 0-20.6 9.5-20.6 20.1 0 3.6 1.1 6.2 2.8 8.2 0.8 0.9 0.9 1.3 0.6 2.3 -0.2 0.8-0.7 2.6-0.9 3.4 -0.3 1.1-1.1 1.4-2.1 1 -5.8-2.4-8.6-8.8-8.6-16 0-11.9 10-26.2 29.9-26.2 16 0 26.5 11.6 26.5 24C77.1 52.8 68 65.1 54.5 65.1z"/>
</svg>