<svg xmlns="http://www.w3.org/2000/svg" viewBox="0 0 95.8 95.8" width="16px" height="16px"><path d="M38.7 44.7s9.1-.7 9.1-11.3c0-10.6-7.4-15.8-16.8-15.8H0V77h30.9s18.9.6 18.9-17.5c0-.1.8-14.8-11.1-14.8zM13.6 28.1h17.3s4.2 0 4.2 6.2-2.5 7.1-5.3 7.1H13.6V28.1zm16.5 38.3H13.6V50.5h17.3s6.3-.1 6.3 8.2c0 6.9-4.6 7.7-7.1 7.7zM62.2 21.1h24.5v7.3H62.2zM75 32.7c-22.8 0-22.8 22.8-22.8 22.8S50.6 78.2 75 78.2c0 0 20.3 1.2 20.3-15.8H84.8s.3 6.4-9.5 6.4c0 0-10.5.7-10.5-10.3h30.8S99 32.7 75 32.7zM64.7 50.5s1.3-9.2 10.5-9.2 9.1 9.2 9.1 9.2H64.7z"/></svg>

